<svg id="visual" viewBox="0 0 900 600" width="900" height="600" xmlns="http://www.w3.org/2000/svg" xmlns:xlink="http://www.w3.org/1999/xlink" version="1.1"><g stroke-width="1" stroke-linejoin="bevel"><path d="M424 312L434 374L484 323Z" fill="#00306e" stroke="#00306e"></path><path d="M434 374L502 349L484 323Z" fill="#003da1" stroke="#003da1"></path><path d="M434 374L441 401L502 349Z" fill="#00357f" stroke="#00357f"></path><path d="M424 312L386 369L434 374Z" fill="#00254d" stroke="#00254d"></path><path d="M434 374L386 369L441 401Z" fill="#003990" stroke="#003990"></path><path d="M502 349L512 291L484 323Z" fill="#00182b" stroke="#00182b"></path><path d="M484 323L512 291L424 312Z" fill="#00254d" stroke="#00254d"></path><path d="M441 401L486 422L502 349Z" fill="#001f3c" stroke="#001f3c"></path><path d="M367 236L360 279L424 312Z" fill="#0941b1" stroke="#0941b1"></path><path d="M424 312L360 279L386 369Z" fill="#00182b" stroke="#00182b"></path><path d="M486 422L557 374L502 349Z" fill="#00306e" stroke="#00306e"></path><path d="M502 349L580 345L512 291Z" fill="#00357f" stroke="#00357f"></path><path d="M512 291L446 222L424 312Z" fill="#002b5d" stroke="#002b5d"></path><path d="M486 422L526 436L557 374Z" fill="#001f3c" stroke="#001f3c"></path><path d="M545 222L482 220L512 291Z" fill="#002b5d" stroke="#002b5d"></path><path d="M512 291L482 220L446 222Z" fill="#003da1" stroke="#003da1"></path><path d="M312 417L373 440L386 369Z" fill="#1b44c2" stroke="#1b44c2"></path><path d="M386 369L373 440L441 401Z" fill="#1b44c2" stroke="#1b44c2"></path><path d="M441 401L404 464L486 422Z" fill="#00182b" stroke="#00182b"></path><path d="M486 422L519 468L526 436Z" fill="#003990" stroke="#003990"></path><path d="M611 428L580 345L557 374Z" fill="#00101c" stroke="#00101c"></path><path d="M557 374L580 345L502 349Z" fill="#00101c" stroke="#00101c"></path><path d="M373 440L404 464L441 401Z" fill="#003da1" stroke="#003da1"></path><path d="M446 222L367 236L424 312Z" fill="#00101c" stroke="#00101c"></path><path d="M456 504L519 468L486 422Z" fill="#00101c" stroke="#00101c"></path><path d="M526 436L611 428L557 374Z" fill="#00306e" stroke="#00306e"></path><path d="M580 345L589 289L512 291Z" fill="#0941b1" stroke="#0941b1"></path><path d="M589 289L545 222L512 291Z" fill="#0941b1" stroke="#0941b1"></path><path d="M482 220L458 183L446 222Z" fill="#00254d" stroke="#00254d"></path><path d="M446 222L425 169L367 236Z" fill="#003da1" stroke="#003da1"></path><path d="M478 142L458 183L538 154Z" fill="#00306e" stroke="#00306e"></path><path d="M290 384L312 417L386 369Z" fill="#003da1" stroke="#003da1"></path><path d="M373 440L357 498L404 464Z" fill="#003da1" stroke="#003da1"></path><path d="M290 384L386 369L360 279Z" fill="#002b5d" stroke="#002b5d"></path><path d="M407 561L456 504L404 464Z" fill="#002b5d" stroke="#002b5d"></path><path d="M404 464L456 504L486 422Z" fill="#00357f" stroke="#00357f"></path><path d="M288 280L290 384L360 279Z" fill="#00254d" stroke="#00254d"></path><path d="M458 183L425 169L446 222Z" fill="#00306e" stroke="#00306e"></path><path d="M301 234L360 279L367 236Z" fill="#1b44c2" stroke="#1b44c2"></path><path d="M301 234L288 280L360 279Z" fill="#001f3c" stroke="#001f3c"></path><path d="M318 199L301 234L367 236Z" fill="#003990" stroke="#003990"></path><path d="M313 502L373 440L312 417Z" fill="#00306e" stroke="#00306e"></path><path d="M313 502L357 498L373 440Z" fill="#00254d" stroke="#00254d"></path><path d="M598 470L526 436L519 468Z" fill="#0941b1" stroke="#0941b1"></path><path d="M598 470L611 428L526 436Z" fill="#1b44c2" stroke="#1b44c2"></path><path d="M580 345L677 293L589 289Z" fill="#003da1" stroke="#003da1"></path><path d="M335 153L318 199L367 236Z" fill="#00306e" stroke="#00306e"></path><path d="M518 528L598 470L519 468Z" fill="#002b5d" stroke="#002b5d"></path><path d="M407 561L453 538L456 504Z" fill="#00182b" stroke="#00182b"></path><path d="M456 504L518 528L519 468Z" fill="#003990" stroke="#003990"></path><path d="M458 183L478 142L425 169Z" fill="#002b5d" stroke="#002b5d"></path><path d="M425 169L335 153L367 236Z" fill="#002b5d" stroke="#002b5d"></path><path d="M538 154L458 183L482 220Z" fill="#1b44c2" stroke="#1b44c2"></path><path d="M453 538L518 528L456 504Z" fill="#003da1" stroke="#003da1"></path><path d="M589 289L620 229L545 222Z" fill="#00182b" stroke="#00182b"></path><path d="M545 222L538 154L482 220Z" fill="#003da1" stroke="#003da1"></path><path d="M677 293L620 229L589 289Z" fill="#00357f" stroke="#00357f"></path><path d="M601 153L538 154L545 222Z" fill="#00306e" stroke="#00306e"></path><path d="M240 290L241 376L290 384Z" fill="#00101c" stroke="#00101c"></path><path d="M290 384L237 407L312 417Z" fill="#003990" stroke="#003990"></path><path d="M240 290L290 384L288 280Z" fill="#003da1" stroke="#003da1"></path><path d="M256 505L313 502L312 417Z" fill="#00306e" stroke="#00306e"></path><path d="M357 498L407 561L404 464Z" fill="#00357f" stroke="#00357f"></path><path d="M520 63L429 126L478 142Z" fill="#00101c" stroke="#00101c"></path><path d="M478 142L429 126L425 169Z" fill="#003da1" stroke="#003da1"></path><path d="M261 225L288 280L301 234Z" fill="#00254d" stroke="#00254d"></path><path d="M261 225L240 290L288 280Z" fill="#003da1" stroke="#003da1"></path><path d="M598 470L634 453L611 428Z" fill="#002b5d" stroke="#002b5d"></path><path d="M679 379L677 293L580 345Z" fill="#003da1" stroke="#003da1"></path><path d="M622 531L634 453L598 470Z" fill="#00182b" stroke="#00182b"></path><path d="M429 126L335 153L425 169Z" fill="#00182b" stroke="#00182b"></path><path d="M318 199L261 225L301 234Z" fill="#00101c" stroke="#00101c"></path><path d="M218 206L261 225L282 123Z" fill="#00306e" stroke="#00306e"></path><path d="M207 406L237 407L241 376Z" fill="#00306e" stroke="#00306e"></path><path d="M241 376L237 407L290 384Z" fill="#00357f" stroke="#00357f"></path><path d="M601 153L524 127L538 154Z" fill="#003990" stroke="#003990"></path><path d="M538 154L524 127L478 142Z" fill="#0941b1" stroke="#0941b1"></path><path d="M379 557L407 561L357 498Z" fill="#00101c" stroke="#00101c"></path><path d="M453 538L489 600L518 528Z" fill="#00306e" stroke="#00306e"></path><path d="M305 556L379 557L357 498Z" fill="#0941b1" stroke="#0941b1"></path><path d="M679 379L580 345L611 428Z" fill="#001f3c" stroke="#001f3c"></path><path d="M684 434L679 379L611 428Z" fill="#00306e" stroke="#00306e"></path><path d="M627 136L601 153L678 157Z" fill="#003da1" stroke="#003da1"></path><path d="M620 229L601 153L545 222Z" fill="#00101c" stroke="#00101c"></path><path d="M186 364L207 406L241 376Z" fill="#002b5d" stroke="#002b5d"></path><path d="M237 407L256 505L312 417Z" fill="#00357f" stroke="#00357f"></path><path d="M701 487L684 434L634 453Z" fill="#002b5d" stroke="#002b5d"></path><path d="M634 453L684 434L611 428Z" fill="#00357f" stroke="#00357f"></path><path d="M743 323L713 265L677 293Z" fill="#003990" stroke="#003990"></path><path d="M207 406L256 505L237 407Z" fill="#00254d" stroke="#00254d"></path><path d="M313 502L305 556L357 498Z" fill="#003da1" stroke="#003da1"></path><path d="M518 528L622 531L598 470Z" fill="#00357f" stroke="#00357f"></path><path d="M596 600L622 531L518 528Z" fill="#002b5d" stroke="#002b5d"></path><path d="M429 126L352 99L335 153Z" fill="#002b5d" stroke="#002b5d"></path><path d="M282 123L261 225L318 199Z" fill="#00182b" stroke="#00182b"></path><path d="M397 58L352 99L429 126Z" fill="#00306e" stroke="#00306e"></path><path d="M358 600L438 600L407 561Z" fill="#00306e" stroke="#00306e"></path><path d="M256 541L305 556L313 502Z" fill="#00101c" stroke="#00101c"></path><path d="M358 600L407 561L379 557Z" fill="#003990" stroke="#003990"></path><path d="M407 561L438 600L453 538Z" fill="#003990" stroke="#003990"></path><path d="M438 600L489 600L453 538Z" fill="#003da1" stroke="#003da1"></path><path d="M240 290L186 364L241 376Z" fill="#00306e" stroke="#00306e"></path><path d="M174 503L256 541L256 505Z" fill="#00306e" stroke="#00306e"></path><path d="M173 311L186 364L240 290Z" fill="#00182b" stroke="#00182b"></path><path d="M701 487L707 406L684 434Z" fill="#0941b1" stroke="#0941b1"></path><path d="M684 434L707 406L679 379Z" fill="#00101c" stroke="#00101c"></path><path d="M282 123L318 199L335 153Z" fill="#003da1" stroke="#003da1"></path><path d="M261 225L183 243L240 290Z" fill="#00182b" stroke="#00182b"></path><path d="M677 293L686 213L620 229Z" fill="#00182b" stroke="#00182b"></path><path d="M713 265L686 213L677 293Z" fill="#00182b" stroke="#00182b"></path><path d="M489 600L513 600L518 528Z" fill="#001f3c" stroke="#001f3c"></path><path d="M678 157L601 153L620 229Z" fill="#00254d" stroke="#00254d"></path><path d="M618 49L520 63L524 127Z" fill="#002b5d" stroke="#002b5d"></path><path d="M524 127L520 63L478 142Z" fill="#001f3c" stroke="#001f3c"></path><path d="M739 355L677 293L679 379Z" fill="#001f3c" stroke="#001f3c"></path><path d="M352 99L282 123L335 153Z" fill="#003da1" stroke="#003da1"></path><path d="M305 556L358 600L379 557Z" fill="#00306e" stroke="#00306e"></path><path d="M183 243L173 311L240 290Z" fill="#00101c" stroke="#00101c"></path><path d="M174 503L256 505L207 406Z" fill="#00357f" stroke="#00357f"></path><path d="M256 505L256 541L313 502Z" fill="#00101c" stroke="#00101c"></path><path d="M305 556L294 600L358 600Z" fill="#003990" stroke="#003990"></path><path d="M218 206L183 243L261 225Z" fill="#1b44c2" stroke="#1b44c2"></path><path d="M136 202L183 243L218 206Z" fill="#00182b" stroke="#00182b"></path><path d="M618 49L524 127L601 153Z" fill="#00357f" stroke="#00357f"></path><path d="M507 43L397 58L429 126Z" fill="#003990" stroke="#003990"></path><path d="M276 34L256 97L282 123Z" fill="#00182b" stroke="#00182b"></path><path d="M707 406L739 355L679 379Z" fill="#003990" stroke="#003990"></path><path d="M666 563L701 487L622 531Z" fill="#00182b" stroke="#00182b"></path><path d="M622 531L701 487L634 453Z" fill="#00101c" stroke="#00101c"></path><path d="M707 406L776 419L739 355Z" fill="#00357f" stroke="#00357f"></path><path d="M686 213L678 157L620 229Z" fill="#00306e" stroke="#00306e"></path><path d="M540 0L507 43L520 63Z" fill="#003990" stroke="#003990"></path><path d="M705 154L678 157L686 213Z" fill="#001f3c" stroke="#001f3c"></path><path d="M739 355L743 323L677 293Z" fill="#00182b" stroke="#00182b"></path><path d="M791 219L705 154L686 213Z" fill="#0941b1" stroke="#0941b1"></path><path d="M513 600L596 600L518 528Z" fill="#001f3c" stroke="#001f3c"></path><path d="M618 49L601 153L627 136Z" fill="#00101c" stroke="#00101c"></path><path d="M520 63L507 43L429 126Z" fill="#0941b1" stroke="#0941b1"></path><path d="M256 541L294 600L305 556Z" fill="#001f3c" stroke="#001f3c"></path><path d="M380 0L362 47L397 58Z" fill="#00254d" stroke="#00254d"></path><path d="M397 58L362 47L352 99Z" fill="#00357f" stroke="#00357f"></path><path d="M276 34L282 123L352 99Z" fill="#003990" stroke="#003990"></path><path d="M199 141L187 161L218 206Z" fill="#001f3c" stroke="#001f3c"></path><path d="M596 600L666 563L622 531Z" fill="#1b44c2" stroke="#1b44c2"></path><path d="M666 563L712 512L701 487Z" fill="#002b5d" stroke="#002b5d"></path><path d="M701 487L776 419L707 406Z" fill="#00101c" stroke="#00101c"></path><path d="M791 219L686 213L713 265Z" fill="#00357f" stroke="#00357f"></path><path d="M678 157L676 113L627 136Z" fill="#002b5d" stroke="#002b5d"></path><path d="M199 141L218 206L282 123Z" fill="#002b5d" stroke="#002b5d"></path><path d="M183 243L126 279L173 311Z" fill="#003990" stroke="#003990"></path><path d="M256 97L199 141L282 123Z" fill="#1b44c2" stroke="#1b44c2"></path><path d="M705 154L676 113L678 157Z" fill="#003990" stroke="#003990"></path><path d="M141 457L174 503L207 406Z" fill="#003da1" stroke="#003da1"></path><path d="M256 541L249 600L294 600Z" fill="#1b44c2" stroke="#1b44c2"></path><path d="M141 457L207 406L103 415Z" fill="#1b44c2" stroke="#1b44c2"></path><path d="M164 600L249 600L256 541Z" fill="#1b44c2" stroke="#1b44c2"></path><path d="M123 218L126 279L183 243Z" fill="#00254d" stroke="#00254d"></path><path d="M173 311L109 355L186 364Z" fill="#003990" stroke="#003990"></path><path d="M103 415L207 406L186 364Z" fill="#00254d" stroke="#00254d"></path><path d="M596 600L659 600L666 563Z" fill="#1b44c2" stroke="#1b44c2"></path><path d="M666 563L747 600L712 512Z" fill="#00182b" stroke="#00182b"></path><path d="M766 498L776 419L701 487Z" fill="#0941b1" stroke="#0941b1"></path><path d="M739 355L791 350L743 323Z" fill="#00101c" stroke="#00101c"></path><path d="M743 323L801 319L713 265Z" fill="#00101c" stroke="#00101c"></path><path d="M766 498L701 487L712 512Z" fill="#00101c" stroke="#00101c"></path><path d="M676 113L618 49L627 136Z" fill="#00182b" stroke="#00182b"></path><path d="M540 0L456 0L507 43Z" fill="#00357f" stroke="#00357f"></path><path d="M507 43L456 0L397 58Z" fill="#00357f" stroke="#00357f"></path><path d="M362 47L276 34L352 99Z" fill="#003da1" stroke="#003da1"></path><path d="M776 419L791 350L739 355Z" fill="#0941b1" stroke="#0941b1"></path><path d="M126 279L109 355L173 311Z" fill="#0941b1" stroke="#0941b1"></path><path d="M135 518L159 519L174 503Z" fill="#00357f" stroke="#00357f"></path><path d="M174 503L159 519L256 541Z" fill="#002b5d" stroke="#002b5d"></path><path d="M135 518L174 503L141 457Z" fill="#00306e" stroke="#00306e"></path><path d="M123 218L136 202L87 163Z" fill="#0941b1" stroke="#0941b1"></path><path d="M187 161L136 202L218 206Z" fill="#00254d" stroke="#00254d"></path><path d="M126 279L78 274L109 355Z" fill="#00101c" stroke="#00101c"></path><path d="M456 0L396 0L397 58Z" fill="#003da1" stroke="#003da1"></path><path d="M396 0L380 0L397 58Z" fill="#001f3c" stroke="#001f3c"></path><path d="M256 97L213 66L199 141Z" fill="#0941b1" stroke="#0941b1"></path><path d="M136 202L123 218L183 243Z" fill="#001f3c" stroke="#001f3c"></path><path d="M618 49L540 0L520 63Z" fill="#00357f" stroke="#00357f"></path><path d="M278 0L276 34L362 47Z" fill="#00306e" stroke="#00306e"></path><path d="M107 137L136 202L187 161Z" fill="#003da1" stroke="#003da1"></path><path d="M825 283L801 319L864 368Z" fill="#003990" stroke="#003990"></path><path d="M791 350L801 319L743 323Z" fill="#001f3c" stroke="#001f3c"></path><path d="M799 549L766 498L712 512Z" fill="#00182b" stroke="#00182b"></path><path d="M864 368L801 319L791 350Z" fill="#003990" stroke="#003990"></path><path d="M109 355L103 415L186 364Z" fill="#1b44c2" stroke="#1b44c2"></path><path d="M705 154L715 102L676 113Z" fill="#1b44c2" stroke="#1b44c2"></path><path d="M676 113L671 59L618 49Z" fill="#1b44c2" stroke="#1b44c2"></path><path d="M618 49L621 0L540 0Z" fill="#00306e" stroke="#00306e"></path><path d="M774 113L715 102L705 154Z" fill="#0941b1" stroke="#0941b1"></path><path d="M715 102L671 59L676 113Z" fill="#003990" stroke="#003990"></path><path d="M825 283L791 219L713 265Z" fill="#00306e" stroke="#00306e"></path><path d="M63 467L135 518L141 457Z" fill="#002b5d" stroke="#002b5d"></path><path d="M159 519L164 600L256 541Z" fill="#002b5d" stroke="#002b5d"></path><path d="M276 34L213 66L256 97Z" fill="#001f3c" stroke="#001f3c"></path><path d="M87 163L75 212L123 218Z" fill="#001f3c" stroke="#001f3c"></path><path d="M75 212L78 274L123 218Z" fill="#002b5d" stroke="#002b5d"></path><path d="M123 218L78 274L126 279Z" fill="#00182b" stroke="#00182b"></path><path d="M39 380L53 420L103 415Z" fill="#00254d" stroke="#00254d"></path><path d="M774 113L729 84L715 102Z" fill="#001f3c" stroke="#001f3c"></path><path d="M715 102L729 84L671 59Z" fill="#00357f" stroke="#00357f"></path><path d="M632 0L621 0L618 49Z" fill="#00182b" stroke="#00182b"></path><path d="M801 319L825 283L713 265Z" fill="#00254d" stroke="#00254d"></path><path d="M791 219L795 160L705 154Z" fill="#00254d" stroke="#00254d"></path><path d="M864 368L791 350L867 408Z" fill="#1b44c2" stroke="#1b44c2"></path><path d="M632 0L618 49L671 59Z" fill="#003990" stroke="#003990"></path><path d="M380 0L278 0L362 47Z" fill="#00101c" stroke="#00101c"></path><path d="M276 34L243 0L213 66Z" fill="#0941b1" stroke="#0941b1"></path><path d="M740 0L632 0L671 59Z" fill="#003da1" stroke="#003da1"></path><path d="M135 600L164 600L159 519Z" fill="#001f3c" stroke="#001f3c"></path><path d="M833 160L795 160L791 219Z" fill="#00182b" stroke="#00182b"></path><path d="M659 600L747 600L666 563Z" fill="#002b5d" stroke="#002b5d"></path><path d="M867 408L791 350L776 419Z" fill="#00182b" stroke="#00182b"></path><path d="M795 160L774 113L705 154Z" fill="#003990" stroke="#003990"></path><path d="M729 84L740 0L671 59Z" fill="#00254d" stroke="#00254d"></path><path d="M107 137L187 161L199 141Z" fill="#00306e" stroke="#00306e"></path><path d="M278 0L243 0L276 34Z" fill="#00254d" stroke="#00254d"></path><path d="M128 78L107 137L199 141Z" fill="#00357f" stroke="#00357f"></path><path d="M128 78L199 141L213 66Z" fill="#003da1" stroke="#003da1"></path><path d="M243 0L182 44L213 66Z" fill="#0941b1" stroke="#0941b1"></path><path d="M107 137L87 163L136 202Z" fill="#003da1" stroke="#003da1"></path><path d="M39 380L103 415L109 355Z" fill="#00357f" stroke="#00357f"></path><path d="M103 415L63 467L141 457Z" fill="#002b5d" stroke="#002b5d"></path><path d="M135 518L135 600L159 519Z" fill="#0941b1" stroke="#0941b1"></path><path d="M39 380L109 355L78 274Z" fill="#00254d" stroke="#00254d"></path><path d="M747 600L799 549L712 512Z" fill="#003da1" stroke="#003da1"></path><path d="M53 420L63 467L103 415Z" fill="#1b44c2" stroke="#1b44c2"></path><path d="M80 543L135 600L135 518Z" fill="#0941b1" stroke="#0941b1"></path><path d="M53 420L0 465L63 467Z" fill="#00182b" stroke="#00182b"></path><path d="M0 376L39 380L0 274Z" fill="#1b44c2" stroke="#1b44c2"></path><path d="M182 44L128 78L213 66Z" fill="#00101c" stroke="#00101c"></path><path d="M107 137L57 98L87 163Z" fill="#00357f" stroke="#00357f"></path><path d="M97 0L128 78L182 44Z" fill="#003990" stroke="#003990"></path><path d="M867 408L776 419L847 498Z" fill="#00101c" stroke="#00101c"></path><path d="M866 245L833 160L791 219Z" fill="#0941b1" stroke="#0941b1"></path><path d="M63 467L80 543L135 518Z" fill="#1b44c2" stroke="#1b44c2"></path><path d="M86 600L80 543L0 559Z" fill="#00357f" stroke="#00357f"></path><path d="M847 498L776 419L766 498Z" fill="#00182b" stroke="#00182b"></path><path d="M747 600L783 600L799 549Z" fill="#00306e" stroke="#00306e"></path><path d="M799 549L847 498L766 498Z" fill="#001f3c" stroke="#001f3c"></path><path d="M866 245L791 219L825 283Z" fill="#0941b1" stroke="#0941b1"></path><path d="M795 160L827 132L774 113Z" fill="#002b5d" stroke="#002b5d"></path><path d="M900 291L825 283L864 368Z" fill="#001f3c" stroke="#001f3c"></path><path d="M900 291L866 245L825 283Z" fill="#00357f" stroke="#00357f"></path><path d="M813 566L847 498L799 549Z" fill="#00101c" stroke="#00101c"></path><path d="M783 600L813 566L799 549Z" fill="#00101c" stroke="#00101c"></path><path d="M827 132L778 62L774 113Z" fill="#00101c" stroke="#00101c"></path><path d="M774 113L778 62L729 84Z" fill="#002b5d" stroke="#002b5d"></path><path d="M900 118L827 132L833 160Z" fill="#001f3c" stroke="#001f3c"></path><path d="M833 160L827 132L795 160Z" fill="#002b5d" stroke="#002b5d"></path><path d="M243 0L183 0L182 44Z" fill="#00357f" stroke="#00357f"></path><path d="M764 0L740 0L778 62Z" fill="#00254d" stroke="#00254d"></path><path d="M778 62L740 0L729 84Z" fill="#1b44c2" stroke="#1b44c2"></path><path d="M0 559L80 543L63 467Z" fill="#00101c" stroke="#00101c"></path><path d="M80 543L86 600L135 600Z" fill="#003990" stroke="#003990"></path><path d="M0 274L39 380L78 274Z" fill="#001f3c" stroke="#001f3c"></path><path d="M39 380L0 431L53 420Z" fill="#00254d" stroke="#00254d"></path><path d="M0 274L78 274L0 236Z" fill="#003990" stroke="#003990"></path><path d="M900 437L900 383L867 408Z" fill="#003da1" stroke="#003da1"></path><path d="M867 408L900 383L864 368Z" fill="#003990" stroke="#003990"></path><path d="M900 383L900 291L864 368Z" fill="#00182b" stroke="#00182b"></path><path d="M866 245L900 196L833 160Z" fill="#002b5d" stroke="#002b5d"></path><path d="M0 236L75 212L0 170Z" fill="#00101c" stroke="#00101c"></path><path d="M0 236L78 274L75 212Z" fill="#002b5d" stroke="#002b5d"></path><path d="M0 376L0 431L39 380Z" fill="#001f3c" stroke="#001f3c"></path><path d="M900 291L900 245L866 245Z" fill="#003da1" stroke="#003da1"></path><path d="M847 498L900 437L867 408Z" fill="#00254d" stroke="#00254d"></path><path d="M900 473L900 437L847 498Z" fill="#0941b1" stroke="#0941b1"></path><path d="M47 34L57 98L128 78Z" fill="#00306e" stroke="#00306e"></path><path d="M128 78L57 98L107 137Z" fill="#001f3c" stroke="#001f3c"></path><path d="M0 170L75 212L87 163Z" fill="#00182b" stroke="#00182b"></path><path d="M848 60L778 62L827 132Z" fill="#00182b" stroke="#00182b"></path><path d="M815 0L764 0L778 62Z" fill="#0941b1" stroke="#0941b1"></path><path d="M0 431L0 465L53 420Z" fill="#1b44c2" stroke="#1b44c2"></path><path d="M900 533L900 473L847 498Z" fill="#00101c" stroke="#00101c"></path><path d="M900 533L847 498L813 566Z" fill="#003da1" stroke="#003da1"></path><path d="M900 245L900 196L866 245Z" fill="#001f3c" stroke="#001f3c"></path><path d="M0 139L0 170L87 163Z" fill="#00182b" stroke="#00182b"></path><path d="M900 118L848 60L827 132Z" fill="#001f3c" stroke="#001f3c"></path><path d="M783 600L862 600L813 566Z" fill="#00101c" stroke="#00101c"></path><path d="M183 0L97 0L182 44Z" fill="#003da1" stroke="#003da1"></path><path d="M57 98L0 139L87 163Z" fill="#003990" stroke="#003990"></path><path d="M862 600L900 533L813 566Z" fill="#001f3c" stroke="#001f3c"></path><path d="M0 78L0 139L57 98Z" fill="#00101c" stroke="#00101c"></path><path d="M848 60L815 0L778 62Z" fill="#001f3c" stroke="#001f3c"></path><path d="M0 465L0 559L63 467Z" fill="#00182b" stroke="#00182b"></path><path d="M900 196L900 118L833 160Z" fill="#0941b1" stroke="#0941b1"></path><path d="M848 60L900 0L815 0Z" fill="#00182b" stroke="#00182b"></path><path d="M97 0L47 34L128 78Z" fill="#00306e" stroke="#00306e"></path><path d="M80 0L47 34L97 0Z" fill="#002b5d" stroke="#002b5d"></path><path d="M0 559L0 600L86 600Z" fill="#0941b1" stroke="#0941b1"></path><path d="M862 600L900 600L900 533Z" fill="#00357f" stroke="#00357f"></path><path d="M0 0L0 78L47 34Z" fill="#003990" stroke="#003990"></path><path d="M47 34L0 78L57 98Z" fill="#0941b1" stroke="#0941b1"></path><path d="M900 118L900 49L848 60Z" fill="#1b44c2" stroke="#1b44c2"></path><path d="M80 0L0 0L47 34Z" fill="#00357f" stroke="#00357f"></path><path d="M900 49L900 0L848 60Z" fill="#00101c" stroke="#00101c"></path></g></svg>